<svg width="925" height="256" viewBox="0 0 925 256" fill="none" xmlns="http://www.w3.org/2000/svg">
<rect width="256" height="256" rx="40" fill="#FE9654"/>
<g clip-path="url(#clip0_159_178)">
<path fill-rule="evenodd" clip-rule="evenodd" d="M128.5 213C174.616 213 212 175.616 212 129.5C212 83.3843 174.616 46 128.5 46C82.3841 46 45 83.3843 45 129.5C45 175.616 82.3841 213 128.5 213ZM154.549 84.8978C155.817 80.3939 151.446 77.7306 147.455 80.5744L91.7312 120.272C87.4022 123.356 88.0831 129.5 92.7541 129.5H107.428V129.386H136.025L112.724 137.608L102.451 174.102C101.183 178.606 105.553 181.27 109.546 178.426L165.269 138.729C169.598 135.645 168.917 129.5 164.246 129.5H141.994L154.549 84.8978Z" fill="#FFF3EB"/>
</g>
<mask id="path-4-outside-1_159_178" maskUnits="userSpaceOnUse" x="309" y="69" width="614" height="117" fill="black">
<rect fill="white" x="309" y="69" width="614" height="117"/>
<path d="M350.708 184L309.368 71.68H330.584L364.436 169.648H361.004L394.856 71.68H414.98L373.796 184H350.708ZM419.929 184V104.44H439.585V184H419.929ZM418.993 91.336V69.652H440.365V91.336H418.993ZM508.98 184V166.06L510.54 166.372C509.188 172.196 505.912 176.876 500.712 180.412C495.512 183.844 489.324 185.56 482.148 185.56C474.868 185.56 468.524 183.896 463.116 180.568C457.812 177.136 453.704 172.352 450.792 166.216C447.88 160.08 446.424 152.852 446.424 144.532C446.424 136.108 447.932 128.776 450.948 122.536C453.964 116.296 458.176 111.46 463.584 108.028C469.096 104.596 475.492 102.88 482.772 102.88C490.26 102.88 496.448 104.7 501.336 108.34C506.224 111.876 509.24 116.816 510.384 123.16L508.356 123.316V71.68H528.168V184H508.98ZM487.92 169.492C494.264 169.492 499.308 167.308 503.052 162.94C506.9 158.468 508.824 152.228 508.824 144.22C508.824 136.212 506.9 130.024 503.052 125.656C499.204 121.288 494.108 119.104 487.764 119.104C481.524 119.104 476.48 121.34 472.632 125.812C468.784 130.18 466.86 136.368 466.86 144.376C466.86 152.384 468.784 158.572 472.632 162.94C476.48 167.308 481.576 169.492 487.92 169.492ZM540.506 184V71.68H560.786V184H540.506ZM555.17 125.656L608.366 71.68H635.666L580.286 125.656H555.17ZM610.862 184L554.858 125.656H580.286L638.786 184H610.862ZM641.955 184V104.44H661.143V123.628H661.611V184H641.955ZM661.611 142.504L659.583 123.628C661.455 116.868 664.627 111.72 669.099 108.184C673.571 104.648 678.927 102.88 685.167 102.88C687.351 102.88 688.911 103.088 689.847 103.504V122.068C689.327 121.86 688.599 121.756 687.663 121.756C686.727 121.652 685.583 121.6 684.231 121.6C676.639 121.6 670.971 123.264 667.227 126.592C663.483 129.92 661.611 135.224 661.611 142.504ZM741.806 184C741.286 181.92 740.87 179.632 740.558 177.136C740.35 174.64 740.246 171.624 740.246 168.088H739.622V130.336C739.622 126.176 738.426 123.056 736.034 120.976C733.746 118.792 730.21 117.7 725.426 117.7C720.746 117.7 717.002 118.584 714.194 120.352C711.49 122.016 709.826 124.46 709.202 127.684H690.326C691.158 120.3 694.694 114.32 700.934 109.744C707.174 105.168 715.546 102.88 726.05 102.88C736.97 102.88 745.238 105.376 750.854 110.368C756.47 115.256 759.278 122.484 759.278 132.052V168.088C759.278 170.584 759.434 173.132 759.746 175.732C760.162 178.332 760.734 181.088 761.462 184H741.806ZM714.194 185.56C706.186 185.56 699.79 183.584 695.006 179.632C690.326 175.576 687.986 170.168 687.986 163.408C687.986 156.128 690.638 150.356 695.942 146.092C701.246 141.828 708.734 138.968 718.406 137.512L743.21 133.768V146.248L721.682 149.524C717.002 150.252 713.466 151.552 711.074 153.424C708.786 155.296 707.642 157.896 707.642 161.224C707.642 164.24 708.734 166.58 710.918 168.244C713.102 169.804 716.118 170.584 719.966 170.584C725.582 170.584 730.262 169.18 734.006 166.372C737.75 163.564 739.622 160.132 739.622 156.076L741.806 168.088C739.726 173.808 736.294 178.176 731.51 181.192C726.83 184.104 721.058 185.56 714.194 185.56ZM773.818 184V97.108C773.818 88.372 776.21 81.716 780.994 77.14C785.882 72.46 793.162 70.12 802.834 70.12C805.018 70.12 806.838 70.224 808.294 70.432C809.75 70.64 811.154 70.952 812.506 71.368V86.656C811.778 86.344 810.842 86.136 809.698 86.032C808.554 85.824 807.254 85.72 805.798 85.72C801.638 85.72 798.518 86.76 796.438 88.84C794.462 90.816 793.474 93.728 793.474 97.576V184H773.818ZM759.466 119.884V104.44H810.79V119.884H759.466ZM854.154 185.56C844.378 185.56 837.15 183.272 832.47 178.696C827.894 174.016 825.606 167.048 825.606 157.792V86.344L845.418 79.012V158.26C845.418 162.108 846.458 164.968 848.538 166.84C850.618 168.712 853.894 169.648 858.366 169.648C860.134 169.648 861.694 169.544 863.046 169.336C864.502 169.024 865.854 168.66 867.102 168.244V183.532C865.854 184.156 864.086 184.624 861.798 184.936C859.51 185.352 856.962 185.56 854.154 185.56ZM810.318 119.884V104.44H867.102V119.884H810.318ZM874.005 184V104.44H893.193V123.628H893.661V184H874.005ZM893.661 142.504L891.633 123.628C893.505 116.868 896.677 111.72 901.149 108.184C905.621 104.648 910.977 102.88 917.217 102.88C919.401 102.88 920.961 103.088 921.897 103.504V122.068C921.377 121.86 920.649 121.756 919.713 121.756C918.777 121.652 917.633 121.6 916.281 121.6C908.689 121.6 903.021 123.264 899.277 126.592C895.533 129.92 893.661 135.224 893.661 142.504Z"/>
</mask>
<path d="M350.708 184L309.368 71.68H330.584L364.436 169.648H361.004L394.856 71.68H414.98L373.796 184H350.708ZM419.929 184V104.44H439.585V184H419.929ZM418.993 91.336V69.652H440.365V91.336H418.993ZM508.98 184V166.06L510.54 166.372C509.188 172.196 505.912 176.876 500.712 180.412C495.512 183.844 489.324 185.56 482.148 185.56C474.868 185.56 468.524 183.896 463.116 180.568C457.812 177.136 453.704 172.352 450.792 166.216C447.88 160.08 446.424 152.852 446.424 144.532C446.424 136.108 447.932 128.776 450.948 122.536C453.964 116.296 458.176 111.46 463.584 108.028C469.096 104.596 475.492 102.88 482.772 102.88C490.26 102.88 496.448 104.7 501.336 108.34C506.224 111.876 509.24 116.816 510.384 123.16L508.356 123.316V71.68H528.168V184H508.98ZM487.92 169.492C494.264 169.492 499.308 167.308 503.052 162.94C506.9 158.468 508.824 152.228 508.824 144.22C508.824 136.212 506.9 130.024 503.052 125.656C499.204 121.288 494.108 119.104 487.764 119.104C481.524 119.104 476.48 121.34 472.632 125.812C468.784 130.18 466.86 136.368 466.86 144.376C466.86 152.384 468.784 158.572 472.632 162.94C476.48 167.308 481.576 169.492 487.92 169.492ZM540.506 184V71.68H560.786V184H540.506ZM555.17 125.656L608.366 71.68H635.666L580.286 125.656H555.17ZM610.862 184L554.858 125.656H580.286L638.786 184H610.862ZM641.955 184V104.44H661.143V123.628H661.611V184H641.955ZM661.611 142.504L659.583 123.628C661.455 116.868 664.627 111.72 669.099 108.184C673.571 104.648 678.927 102.88 685.167 102.88C687.351 102.88 688.911 103.088 689.847 103.504V122.068C689.327 121.86 688.599 121.756 687.663 121.756C686.727 121.652 685.583 121.6 684.231 121.6C676.639 121.6 670.971 123.264 667.227 126.592C663.483 129.92 661.611 135.224 661.611 142.504ZM741.806 184C741.286 181.92 740.87 179.632 740.558 177.136C740.35 174.64 740.246 171.624 740.246 168.088H739.622V130.336C739.622 126.176 738.426 123.056 736.034 120.976C733.746 118.792 730.21 117.7 725.426 117.7C720.746 117.7 717.002 118.584 714.194 120.352C711.49 122.016 709.826 124.46 709.202 127.684H690.326C691.158 120.3 694.694 114.32 700.934 109.744C707.174 105.168 715.546 102.88 726.05 102.88C736.97 102.88 745.238 105.376 750.854 110.368C756.47 115.256 759.278 122.484 759.278 132.052V168.088C759.278 170.584 759.434 173.132 759.746 175.732C760.162 178.332 760.734 181.088 761.462 184H741.806ZM714.194 185.56C706.186 185.56 699.79 183.584 695.006 179.632C690.326 175.576 687.986 170.168 687.986 163.408C687.986 156.128 690.638 150.356 695.942 146.092C701.246 141.828 708.734 138.968 718.406 137.512L743.21 133.768V146.248L721.682 149.524C717.002 150.252 713.466 151.552 711.074 153.424C708.786 155.296 707.642 157.896 707.642 161.224C707.642 164.24 708.734 166.58 710.918 168.244C713.102 169.804 716.118 170.584 719.966 170.584C725.582 170.584 730.262 169.18 734.006 166.372C737.75 163.564 739.622 160.132 739.622 156.076L741.806 168.088C739.726 173.808 736.294 178.176 731.51 181.192C726.83 184.104 721.058 185.56 714.194 185.56ZM773.818 184V97.108C773.818 88.372 776.21 81.716 780.994 77.14C785.882 72.46 793.162 70.12 802.834 70.12C805.018 70.12 806.838 70.224 808.294 70.432C809.75 70.64 811.154 70.952 812.506 71.368V86.656C811.778 86.344 810.842 86.136 809.698 86.032C808.554 85.824 807.254 85.72 805.798 85.72C801.638 85.72 798.518 86.76 796.438 88.84C794.462 90.816 793.474 93.728 793.474 97.576V184H773.818ZM759.466 119.884V104.44H810.79V119.884H759.466ZM854.154 185.56C844.378 185.56 837.15 183.272 832.47 178.696C827.894 174.016 825.606 167.048 825.606 157.792V86.344L845.418 79.012V158.26C845.418 162.108 846.458 164.968 848.538 166.84C850.618 168.712 853.894 169.648 858.366 169.648C860.134 169.648 861.694 169.544 863.046 169.336C864.502 169.024 865.854 168.66 867.102 168.244V183.532C865.854 184.156 864.086 184.624 861.798 184.936C859.51 185.352 856.962 185.56 854.154 185.56ZM810.318 119.884V104.44H867.102V119.884H810.318ZM874.005 184V104.44H893.193V123.628H893.661V184H874.005ZM893.661 142.504L891.633 123.628C893.505 116.868 896.677 111.72 901.149 108.184C905.621 104.648 910.977 102.88 917.217 102.88C919.401 102.88 920.961 103.088 921.897 103.504V122.068C921.377 121.86 920.649 121.756 919.713 121.756C918.777 121.652 917.633 121.6 916.281 121.6C908.689 121.6 903.021 123.264 899.277 126.592C895.533 129.92 893.661 135.224 893.661 142.504Z" fill="#FE9654"/>
<path d="M350.708 184L350.52 184.069L350.568 184.2H350.708V184ZM309.368 71.68V71.48H309.081L309.18 71.7491L309.368 71.68ZM330.584 71.68L330.773 71.6147L330.726 71.48H330.584V71.68ZM364.436 169.648V169.848H364.717L364.625 169.583L364.436 169.648ZM361.004 169.648L360.815 169.583L360.723 169.848H361.004V169.648ZM394.856 71.68V71.48H394.714L394.667 71.6147L394.856 71.68ZM414.98 71.68L415.168 71.7488L415.266 71.48H414.98V71.68ZM373.796 184V184.2H373.936L373.984 184.069L373.796 184ZM350.708 184L350.896 183.931L309.556 71.6109L309.368 71.68L309.18 71.7491L350.52 184.069L350.708 184ZM309.368 71.68V71.88H330.584V71.68V71.48H309.368V71.68ZM330.584 71.68L330.395 71.7453L364.247 169.713L364.436 169.648L364.625 169.583L330.773 71.6147L330.584 71.68ZM364.436 169.648V169.448H361.004V169.648V169.848H364.436V169.648ZM361.004 169.648L361.193 169.713L395.045 71.7453L394.856 71.68L394.667 71.6147L360.815 169.583L361.004 169.648ZM394.856 71.68V71.88H414.98V71.68V71.48H394.856V71.68ZM414.98 71.68L414.792 71.6111L373.608 183.931L373.796 184L373.984 184.069L415.168 71.7488L414.98 71.68ZM373.796 184V183.8H350.708V184V184.2H373.796V184ZM419.929 184H419.729V184.2H419.929V184ZM419.929 104.44V104.24H419.729V104.44H419.929ZM439.585 104.44H439.785V104.24H439.585V104.44ZM439.585 184V184.2H439.785V184H439.585ZM418.993 91.336H418.793V91.536H418.993V91.336ZM418.993 69.652V69.452H418.793V69.652H418.993ZM440.365 69.652H440.565V69.452H440.365V69.652ZM440.365 91.336V91.536H440.565V91.336H440.365ZM419.929 184H420.129V104.44H419.929H419.729V184H419.929ZM419.929 104.44V104.64H439.585V104.44V104.24H419.929V104.44ZM439.585 104.44H439.385V184H439.585H439.785V104.44H439.585ZM439.585 184V183.8H419.929V184V184.2H439.585V184ZM418.993 91.336H419.193V69.652H418.993H418.793V91.336H418.993ZM418.993 69.652V69.852H440.365V69.652V69.452H418.993V69.652ZM440.365 69.652H440.165V91.336H440.365H440.565V69.652H440.365ZM440.365 91.336V91.136H418.993V91.336V91.536H440.365V91.336ZM508.98 184H508.78V184.2H508.98V184ZM508.98 166.06L509.019 165.864L508.78 165.816V166.06H508.98ZM510.54 166.372L510.735 166.417L510.781 166.216L510.579 166.176L510.54 166.372ZM500.712 180.412L500.822 180.579L500.824 180.577L500.712 180.412ZM463.116 180.568L463.007 180.736L463.011 180.738L463.116 180.568ZM450.792 166.216L450.972 166.13L450.972 166.13L450.792 166.216ZM463.584 108.028L463.478 107.858L463.477 107.859L463.584 108.028ZM501.336 108.34L501.216 108.5L501.219 108.502L501.336 108.34ZM510.384 123.16L510.399 123.359L510.62 123.342L510.581 123.125L510.384 123.16ZM508.356 123.316H508.156V123.532L508.371 123.515L508.356 123.316ZM508.356 71.68V71.48H508.156V71.68H508.356ZM528.168 71.68H528.368V71.48H528.168V71.68ZM528.168 184V184.2H528.368V184H528.168ZM503.052 162.94L502.9 162.81L502.9 162.81L503.052 162.94ZM472.632 125.812L472.782 125.944L472.783 125.942L472.632 125.812ZM472.632 162.94L472.782 162.808L472.782 162.808L472.632 162.94ZM508.98 184H509.18V166.06H508.98H508.78V184H508.98ZM508.98 166.06L508.941 166.256L510.501 166.568L510.54 166.372L510.579 166.176L509.019 165.864L508.98 166.06ZM510.54 166.372L510.345 166.327C509.005 172.099 505.76 176.737 500.599 180.247L500.712 180.412L500.824 180.577C506.063 177.015 509.371 172.293 510.735 166.417L510.54 166.372ZM500.712 180.412L500.602 180.245C495.439 183.652 489.291 185.36 482.148 185.36V185.56V185.76C489.357 185.76 495.584 184.036 500.822 180.579L500.712 180.412ZM482.148 185.56V185.36C474.899 185.36 468.593 183.704 463.221 180.398L463.116 180.568L463.011 180.738C468.455 184.088 474.836 185.76 482.148 185.76V185.56ZM463.116 180.568L463.224 180.4C457.954 176.99 453.87 172.235 450.972 166.13L450.792 166.216L450.611 166.302C453.538 172.469 457.67 177.282 463.007 180.736L463.116 180.568ZM450.792 166.216L450.972 166.13C448.076 160.026 446.624 152.829 446.624 144.532H446.424H446.224C446.224 152.875 447.684 160.134 450.611 166.302L450.792 166.216ZM446.424 144.532H446.624C446.624 136.132 448.127 128.831 451.128 122.623L450.948 122.536L450.768 122.449C447.736 128.721 446.224 136.084 446.224 144.532H446.424ZM450.948 122.536L451.128 122.623C454.129 116.414 458.317 111.607 463.691 108.197L463.584 108.028L463.477 107.859C458.035 111.313 453.799 116.178 450.768 122.449L450.948 122.536ZM463.584 108.028L463.689 108.198C469.166 104.788 475.524 103.08 482.772 103.08V102.88V102.68C475.459 102.68 469.025 104.404 463.478 107.858L463.584 108.028ZM482.772 102.88V103.08C490.227 103.08 496.37 104.892 501.216 108.5L501.336 108.34L501.455 108.18C496.525 104.508 490.293 102.68 482.772 102.68V102.88ZM501.336 108.34L501.219 108.502C506.062 112.006 509.051 116.899 510.187 123.195L510.384 123.16L510.581 123.125C509.428 116.733 506.386 111.746 501.453 108.178L501.336 108.34ZM510.384 123.16L510.368 122.961L508.34 123.117L508.356 123.316L508.371 123.515L510.399 123.359L510.384 123.16ZM508.356 123.316H508.556V71.68H508.356H508.156V123.316H508.356ZM508.356 71.68V71.88H528.168V71.68V71.48H508.356V71.68ZM528.168 71.68H527.968V184H528.168H528.368V71.68H528.168ZM528.168 184V183.8H508.98V184V184.2H528.168V184ZM487.92 169.492V169.692C494.315 169.692 499.417 167.487 503.204 163.07L503.052 162.94L502.9 162.81C499.198 167.129 494.212 169.292 487.92 169.292V169.492ZM503.052 162.94L503.203 163.07C507.092 158.551 509.024 152.259 509.024 144.22H508.824H508.624C508.624 152.197 506.707 158.385 502.9 162.81L503.052 162.94ZM508.824 144.22H509.024C509.024 136.182 507.092 129.94 503.202 125.524L503.052 125.656L502.902 125.788C506.707 130.108 508.624 136.242 508.624 144.22H508.824ZM503.052 125.656L503.202 125.524C499.312 121.109 494.159 118.904 487.764 118.904V119.104V119.304C494.056 119.304 499.095 121.467 502.902 125.788L503.052 125.656ZM487.764 119.104V118.904C481.469 118.904 476.369 121.163 472.48 125.682L472.632 125.812L472.783 125.942C476.591 121.517 481.578 119.304 487.764 119.304V119.104ZM472.632 125.812L472.482 125.68C468.591 130.096 466.66 136.338 466.66 144.376H466.86H467.06C467.06 136.398 468.976 130.264 472.782 125.944L472.632 125.812ZM466.86 144.376H466.66C466.66 152.414 468.591 158.656 472.482 163.072L472.632 162.94L472.782 162.808C468.976 158.488 467.06 152.354 467.06 144.376H466.86ZM472.632 162.94L472.482 163.072C476.371 167.487 481.524 169.692 487.92 169.692V169.492V169.292C481.627 169.292 476.588 167.129 472.782 162.808L472.632 162.94ZM540.506 184H540.306V184.2H540.506V184ZM540.506 71.68V71.48H540.306V71.68H540.506ZM560.786 71.68H560.986V71.48H560.786V71.68ZM560.786 184V184.2H560.986V184H560.786ZM555.17 125.656L555.028 125.516L554.692 125.856H555.17V125.656ZM608.366 71.68V71.48H608.283L608.224 71.5396L608.366 71.68ZM635.666 71.68L635.806 71.8232L636.158 71.48H635.666V71.68ZM580.286 125.656V125.856H580.368L580.426 125.799L580.286 125.656ZM610.862 184L610.718 184.138L610.777 184.2H610.862V184ZM554.858 125.656V125.456H554.389L554.714 125.794L554.858 125.656ZM580.286 125.656L580.428 125.514L580.369 125.456H580.286V125.656ZM638.786 184V184.2H639.27L638.928 183.858L638.786 184ZM540.506 184H540.706V71.68H540.506H540.306V184H540.506ZM540.506 71.68V71.88H560.786V71.68V71.48H540.506V71.68ZM560.786 71.68H560.586V184H560.786H560.986V71.68H560.786ZM560.786 184V183.8H540.506V184V184.2H560.786V184ZM555.17 125.656L555.313 125.796L608.509 71.8204L608.366 71.68L608.224 71.5396L555.028 125.516L555.17 125.656ZM608.366 71.68V71.88H635.666V71.68V71.48H608.366V71.68ZM635.666 71.68L635.527 71.5368L580.147 125.513L580.286 125.656L580.426 125.799L635.806 71.8232L635.666 71.68ZM580.286 125.656V125.456H555.17V125.656V125.856H580.286V125.656ZM610.862 184L611.007 183.862L555.003 125.517L554.858 125.656L554.714 125.794L610.718 184.138L610.862 184ZM554.858 125.656V125.856H580.286V125.656V125.456H554.858V125.656ZM580.286 125.656L580.145 125.798L638.645 184.142L638.786 184L638.928 183.858L580.428 125.514L580.286 125.656ZM638.786 184V183.8H610.862V184V184.2H638.786V184ZM641.955 184H641.755V184.2H641.955V184ZM641.955 104.44V104.24H641.755V104.44H641.955ZM661.143 104.44H661.343V104.24H661.143V104.44ZM661.143 123.628H660.943V123.828H661.143V123.628ZM661.611 123.628H661.811V123.428H661.611V123.628ZM661.611 184V184.2H661.811V184H661.611ZM661.611 142.504L661.412 142.525L661.811 142.504H661.611ZM659.583 123.628L659.39 123.575L659.38 123.611L659.384 123.649L659.583 123.628ZM689.847 103.504H690.047V103.374L689.928 103.321L689.847 103.504ZM689.847 122.068L689.773 122.254L690.047 122.363V122.068H689.847ZM687.663 121.756L687.641 121.955L687.652 121.956H687.663V121.756ZM667.227 126.592L667.094 126.443L667.094 126.443L667.227 126.592ZM641.955 184H642.155V104.44H641.955H641.755V184H641.955ZM641.955 104.44V104.64H661.143V104.44V104.24H641.955V104.44ZM661.143 104.44H660.943V123.628H661.143H661.343V104.44H661.143ZM661.143 123.628V123.828H661.611V123.628V123.428H661.143V123.628ZM661.611 123.628H661.411V184H661.611H661.811V123.628H661.611ZM661.611 184V183.8H641.955V184V184.2H661.611V184ZM661.611 142.504L661.81 142.483L659.782 123.607L659.583 123.628L659.384 123.649L661.412 142.525L661.611 142.504ZM659.583 123.628L659.776 123.681C661.639 116.953 664.792 111.845 669.223 108.341L669.099 108.184L668.975 108.027C664.463 111.595 661.271 116.783 659.39 123.575L659.583 123.628ZM669.099 108.184L669.223 108.341C673.656 104.835 678.968 103.08 685.167 103.08V102.88V102.68C678.887 102.68 673.486 104.461 668.975 108.027L669.099 108.184ZM685.167 102.88V103.08C687.348 103.08 688.871 103.289 689.766 103.687L689.847 103.504L689.928 103.321C688.951 102.887 687.354 102.68 685.167 102.68V102.88ZM689.847 103.504H689.647V122.068H689.847H690.047V103.504H689.847ZM689.847 122.068L689.921 121.882C689.367 121.661 688.61 121.556 687.663 121.556V121.756V121.956C688.588 121.956 689.287 122.059 689.773 122.254L689.847 122.068ZM687.663 121.756L687.685 121.557C686.739 121.452 685.588 121.4 684.231 121.4V121.6V121.8C685.579 121.8 686.715 121.852 687.641 121.955L687.663 121.756ZM684.231 121.6V121.4C676.615 121.4 670.89 123.069 667.094 126.443L667.227 126.592L667.36 126.741C671.053 123.459 676.664 121.8 684.231 121.8V121.6ZM667.227 126.592L667.094 126.443C663.291 129.823 661.411 135.193 661.411 142.504H661.611H661.811C661.811 135.255 663.675 130.017 667.36 126.741L667.227 126.592ZM741.806 184L741.612 184.049L741.65 184.2H741.806V184ZM740.558 177.136L740.359 177.153L740.36 177.161L740.558 177.136ZM740.246 168.088H740.446V167.888H740.246V168.088ZM739.622 168.088H739.422V168.288H739.622V168.088ZM736.034 120.976L735.896 121.121L735.903 121.127L736.034 120.976ZM714.194 120.352L714.299 120.522L714.301 120.521L714.194 120.352ZM709.202 127.684V127.884H709.367L709.398 127.722L709.202 127.684ZM690.326 127.684L690.127 127.662L690.102 127.884H690.326V127.684ZM700.934 109.744L701.052 109.905L701.052 109.905L700.934 109.744ZM750.854 110.368L750.721 110.517L750.723 110.519L750.854 110.368ZM759.746 175.732L759.547 175.756L759.549 175.764L759.746 175.732ZM761.462 184V184.2H761.718L761.656 183.951L761.462 184ZM695.006 179.632L694.875 179.783L694.879 179.786L695.006 179.632ZM695.942 146.092L695.817 145.936L695.817 145.936L695.942 146.092ZM718.406 137.512L718.436 137.71L718.436 137.71L718.406 137.512ZM743.21 133.768H743.41V133.536L743.18 133.57L743.21 133.768ZM743.21 146.248L743.24 146.446L743.41 146.42V146.248H743.21ZM721.682 149.524L721.652 149.326L721.651 149.326L721.682 149.524ZM711.074 153.424L710.951 153.266L710.947 153.269L711.074 153.424ZM710.918 168.244L710.797 168.403L710.802 168.407L710.918 168.244ZM734.006 166.372L733.886 166.212L733.886 166.212L734.006 166.372ZM739.622 156.076L739.819 156.04L739.422 156.076H739.622ZM741.806 168.088L741.994 168.156L742.013 168.105L742.003 168.052L741.806 168.088ZM731.51 181.192L731.616 181.362L731.617 181.361L731.51 181.192ZM741.806 184L742 183.951C741.482 181.88 741.068 179.601 740.757 177.111L740.558 177.136L740.36 177.161C740.672 179.663 741.09 181.96 741.612 184.049L741.806 184ZM740.558 177.136L740.757 177.119C740.55 174.631 740.446 171.621 740.446 168.088H740.246H740.046C740.046 171.627 740.15 174.649 740.359 177.153L740.558 177.136ZM740.246 168.088V167.888H739.622V168.088V168.288H740.246V168.088ZM739.622 168.088H739.822V130.336H739.622H739.422V168.088H739.622ZM739.622 130.336H739.822C739.822 126.137 738.614 122.954 736.165 120.825L736.034 120.976L735.903 121.127C738.239 123.158 739.422 126.215 739.422 130.336H739.622ZM736.034 120.976L736.172 120.831C733.832 118.597 730.236 117.5 725.426 117.5V117.7V117.9C730.184 117.9 733.66 118.987 735.896 121.121L736.034 120.976ZM725.426 117.7V117.5C720.723 117.5 716.938 118.388 714.088 120.183L714.194 120.352L714.301 120.521C717.066 118.78 720.769 117.9 725.426 117.9V117.7ZM714.194 120.352L714.089 120.182C711.336 121.876 709.64 124.369 709.006 127.646L709.202 127.684L709.398 127.722C710.012 124.551 711.644 122.156 714.299 120.522L714.194 120.352ZM709.202 127.684V127.484H690.326V127.684V127.884H709.202V127.684ZM690.326 127.684L690.525 127.706C691.35 120.38 694.855 114.45 701.052 109.905L700.934 109.744L700.816 109.583C694.533 114.19 690.966 120.22 690.127 127.662L690.326 127.684ZM700.934 109.744L701.052 109.905C707.248 105.362 715.574 103.08 726.05 103.08V102.88V102.68C715.519 102.68 707.1 104.974 700.816 109.583L700.934 109.744ZM726.05 102.88V103.08C736.943 103.08 745.155 105.57 750.721 110.517L750.854 110.368L750.987 110.219C745.321 105.182 736.997 102.68 726.05 102.68V102.88ZM750.854 110.368L750.723 110.519C756.283 115.359 759.078 122.524 759.078 132.052H759.278H759.478C759.478 122.444 756.657 115.153 750.985 110.217L750.854 110.368ZM759.278 132.052H759.078V168.088H759.278H759.478V132.052H759.278ZM759.278 168.088H759.078C759.078 170.592 759.235 173.148 759.548 175.756L759.746 175.732L759.945 175.708C759.634 173.116 759.478 170.576 759.478 168.088H759.278ZM759.746 175.732L759.549 175.764C759.966 178.37 760.539 181.132 761.268 184.049L761.462 184L761.656 183.951C760.929 181.044 760.359 178.294 759.944 175.7L759.746 175.732ZM761.462 184V183.8H741.806V184V184.2H761.462V184ZM714.194 185.56V185.36C706.219 185.36 699.872 183.392 695.133 179.478L695.006 179.632L694.879 179.786C699.708 183.776 706.153 185.76 714.194 185.76V185.56ZM695.006 179.632L695.137 179.481C690.505 175.467 688.186 170.116 688.186 163.408H687.986H687.786C687.786 170.22 690.147 175.685 694.875 179.783L695.006 179.632ZM687.986 163.408H688.186C688.186 156.184 690.814 150.471 696.067 146.248L695.942 146.092L695.817 145.936C690.462 150.241 687.786 156.072 687.786 163.408H687.986ZM695.942 146.092L696.067 146.248C701.334 142.014 708.784 139.163 718.436 137.71L718.406 137.512L718.376 137.314C708.684 138.773 701.158 141.642 695.817 145.936L695.942 146.092ZM718.406 137.512L718.436 137.71L743.24 133.966L743.21 133.768L743.18 133.57L718.376 137.314L718.406 137.512ZM743.21 133.768H743.01V146.248H743.21H743.41V133.768H743.21ZM743.21 146.248L743.18 146.05L721.652 149.326L721.682 149.524L721.712 149.722L743.24 146.446L743.21 146.248ZM721.682 149.524L721.651 149.326C716.955 150.057 713.381 151.365 710.951 153.266L711.074 153.424L711.197 153.581C713.551 151.739 717.049 150.447 721.713 149.722L721.682 149.524ZM711.074 153.424L710.947 153.269C708.607 155.184 707.442 157.845 707.442 161.224H707.642H707.842C707.842 157.947 708.965 155.408 711.201 153.579L711.074 153.424ZM707.642 161.224H707.442C707.442 164.295 708.558 166.697 710.797 168.403L710.918 168.244L711.039 168.085C708.91 166.463 707.842 164.185 707.842 161.224H707.642ZM710.918 168.244L710.802 168.407C713.032 169.999 716.094 170.784 719.966 170.784V170.584V170.384C716.142 170.384 713.173 169.609 711.034 168.081L710.918 168.244ZM719.966 170.584V170.784C725.616 170.784 730.341 169.371 734.126 166.532L734.006 166.372L733.886 166.212C730.183 168.989 725.548 170.384 719.966 170.384V170.584ZM734.006 166.372L734.126 166.532C737.912 163.693 739.822 160.205 739.822 156.076H739.622H739.422C739.422 160.059 737.589 163.435 733.886 166.212L734.006 166.372ZM739.622 156.076L739.425 156.112L741.609 168.124L741.806 168.088L742.003 168.052L739.819 156.04L739.622 156.076ZM741.806 168.088L741.618 168.02C739.552 173.701 736.147 178.032 731.403 181.023L731.51 181.192L731.617 181.361C736.441 178.32 739.9 173.915 741.994 168.156L741.806 168.088ZM731.51 181.192L731.404 181.022C726.763 183.91 721.03 185.36 714.194 185.36V185.56V185.76C721.086 185.76 726.897 184.298 731.616 181.362L731.51 181.192ZM773.818 184H773.618V184.2H773.818V184ZM780.994 77.14L781.132 77.2845L781.132 77.2845L780.994 77.14ZM808.294 70.432L808.322 70.234L808.322 70.234L808.294 70.432ZM812.506 71.368H812.706V71.2203L812.565 71.1768L812.506 71.368ZM812.506 86.656L812.427 86.8398L812.706 86.9593V86.656H812.506ZM809.698 86.032L809.662 86.2288L809.671 86.2304L809.68 86.2312L809.698 86.032ZM796.438 88.84L796.579 88.9814L796.579 88.9814L796.438 88.84ZM793.474 184V184.2H793.674V184H793.474ZM759.466 119.884H759.266V120.084H759.466V119.884ZM759.466 104.44V104.24H759.266V104.44H759.466ZM810.79 104.44H810.99V104.24H810.79V104.44ZM810.79 119.884V120.084H810.99V119.884H810.79ZM773.818 184H774.018V97.108H773.818H773.618V184H773.818ZM773.818 97.108H774.018C774.018 88.4084 776.399 81.8118 781.132 77.2845L780.994 77.14L780.856 76.9955C776.021 81.6202 773.618 88.3356 773.618 97.108H773.818ZM780.994 77.14L781.132 77.2845C785.969 72.6529 793.191 70.32 802.834 70.32V70.12V69.92C793.132 69.92 785.794 72.2671 780.855 76.9955L780.994 77.14ZM802.834 70.12V70.32C805.012 70.32 806.822 70.4238 808.266 70.63L808.294 70.432L808.322 70.234C806.853 70.0242 805.023 69.92 802.834 69.92V70.12ZM808.294 70.432L808.266 70.63C809.712 70.8366 811.105 71.1463 812.447 71.5591L812.506 71.368L812.565 71.1768C811.202 70.7576 809.788 70.4434 808.322 70.234L808.294 70.432ZM812.506 71.368H812.306V86.656H812.506H812.706V71.368H812.506ZM812.506 86.656L812.585 86.4722C811.831 86.1491 810.872 85.9379 809.716 85.8328L809.698 86.032L809.68 86.2312C810.811 86.3341 811.725 86.5389 812.427 86.8398L812.506 86.656ZM809.698 86.032L809.734 85.8352C808.575 85.6246 807.263 85.52 805.798 85.52V85.72V85.92C807.245 85.92 808.532 86.0234 809.662 86.2288L809.698 86.032ZM805.798 85.72V85.52C801.607 85.52 798.427 86.5678 796.296 88.6986L796.438 88.84L796.579 88.9814C798.608 86.9522 801.669 85.92 805.798 85.92V85.72ZM796.438 88.84L796.296 88.6986C794.271 90.7244 793.274 93.6954 793.274 97.576H793.474H793.674C793.674 93.7606 794.653 90.9076 796.579 88.9814L796.438 88.84ZM793.474 97.576H793.274V184H793.474H793.674V97.576H793.474ZM793.474 184V183.8H773.818V184V184.2H793.474V184ZM759.466 119.884H759.666V104.44H759.466H759.266V119.884H759.466ZM759.466 104.44V104.64H810.79V104.44V104.24H759.466V104.44ZM810.79 104.44H810.59V119.884H810.79H810.99V104.44H810.79ZM810.79 119.884V119.684H759.466V119.884V120.084H810.79V119.884ZM832.47 178.696L832.327 178.836L832.33 178.839L832.47 178.696ZM825.606 86.344L825.537 86.1564L825.406 86.2048V86.344H825.606ZM845.418 79.012H845.618V78.7247L845.349 78.8244L845.418 79.012ZM848.538 166.84L848.672 166.691L848.672 166.691L848.538 166.84ZM863.046 169.336L863.077 169.534L863.088 169.532L863.046 169.336ZM867.102 168.244H867.302V167.967L867.039 168.054L867.102 168.244ZM867.102 183.532L867.192 183.711L867.302 183.656V183.532H867.102ZM861.798 184.936L861.771 184.738L861.762 184.739L861.798 184.936ZM810.318 119.884H810.118V120.084H810.318V119.884ZM810.318 104.44V104.24H810.118V104.44H810.318ZM867.102 104.44H867.302V104.24H867.102V104.44ZM867.102 119.884V120.084H867.302V119.884H867.102ZM854.154 185.56V185.36C844.405 185.36 837.238 183.078 832.61 178.553L832.47 178.696L832.33 178.839C837.063 183.466 844.351 185.76 854.154 185.76V185.56ZM832.47 178.696L832.613 178.556C828.087 173.927 825.806 167.018 825.806 157.792H825.606H825.406C825.406 167.078 827.702 174.105 832.327 178.836L832.47 178.696ZM825.606 157.792H825.806V86.344H825.606H825.406V157.792H825.606ZM825.606 86.344L825.676 86.5316L845.488 79.1996L845.418 79.012L845.349 78.8244L825.537 86.1564L825.606 86.344ZM845.418 79.012H845.218V158.26H845.418H845.618V79.012H845.418ZM845.418 158.26H845.218C845.218 162.143 846.268 165.066 848.404 166.989L848.538 166.84L848.672 166.691C846.648 164.87 845.618 162.073 845.618 158.26H845.418ZM848.538 166.84L848.404 166.989C850.538 168.909 853.873 169.848 858.366 169.848V169.648V169.448C853.916 169.448 850.699 168.515 848.672 166.691L848.538 166.84ZM858.366 169.648V169.848C860.142 169.848 861.712 169.744 863.077 169.534L863.046 169.336L863.016 169.138C861.676 169.344 860.127 169.448 858.366 169.448V169.648ZM863.046 169.336L863.088 169.532C864.55 169.218 865.91 168.852 867.165 168.434L867.102 168.244L867.039 168.054C865.799 168.468 864.454 168.83 863.004 169.14L863.046 169.336ZM867.102 168.244H866.902V183.532H867.102H867.302V168.244H867.102ZM867.102 183.532L867.013 183.353C865.793 183.963 864.05 184.427 861.771 184.738L861.798 184.936L861.825 185.134C864.123 184.821 865.915 184.349 867.192 183.711L867.102 183.532ZM861.798 184.936L861.762 184.739C859.488 185.153 856.952 185.36 854.154 185.36V185.56V185.76C856.972 185.76 859.532 185.551 861.834 185.133L861.798 184.936ZM810.318 119.884H810.518V104.44H810.318H810.118V119.884H810.318ZM810.318 104.44V104.64H867.102V104.44V104.24H810.318V104.44ZM867.102 104.44H866.902V119.884H867.102H867.302V104.44H867.102ZM867.102 119.884V119.684H810.318V119.884V120.084H867.102V119.884ZM874.005 184H873.805V184.2H874.005V184ZM874.005 104.44V104.24H873.805V104.44H874.005ZM893.193 104.44H893.393V104.24H893.193V104.44ZM893.193 123.628H892.993V123.828H893.193V123.628ZM893.661 123.628H893.861V123.428H893.661V123.628ZM893.661 184V184.2H893.861V184H893.661ZM893.661 142.504L893.462 142.525L893.861 142.504H893.661ZM891.633 123.628L891.44 123.575L891.43 123.611L891.434 123.649L891.633 123.628ZM921.897 103.504H922.097V103.374L921.978 103.321L921.897 103.504ZM921.897 122.068L921.823 122.254L922.097 122.363V122.068H921.897ZM919.713 121.756L919.691 121.955L919.702 121.956H919.713V121.756ZM899.277 126.592L899.144 126.443L899.144 126.443L899.277 126.592ZM874.005 184H874.205V104.44H874.005H873.805V184H874.005ZM874.005 104.44V104.64H893.193V104.44V104.24H874.005V104.44ZM893.193 104.44H892.993V123.628H893.193H893.393V104.44H893.193ZM893.193 123.628V123.828H893.661V123.628V123.428H893.193V123.628ZM893.661 123.628H893.461V184H893.661H893.861V123.628H893.661ZM893.661 184V183.8H874.005V184V184.2H893.661V184ZM893.661 142.504L893.86 142.483L891.832 123.607L891.633 123.628L891.434 123.649L893.462 142.525L893.661 142.504ZM891.633 123.628L891.826 123.681C893.689 116.953 896.841 111.845 901.273 108.341L901.149 108.184L901.025 108.027C896.513 111.595 893.321 116.783 891.44 123.575L891.633 123.628ZM901.149 108.184L901.273 108.341C905.706 104.835 911.018 103.08 917.217 103.08V102.88V102.68C910.937 102.68 905.536 104.461 901.025 108.027L901.149 108.184ZM917.217 102.88V103.08C919.398 103.08 920.921 103.289 921.816 103.687L921.897 103.504L921.978 103.321C921.001 102.887 919.404 102.68 917.217 102.68V102.88ZM921.897 103.504H921.697V122.068H921.897H922.097V103.504H921.897ZM921.897 122.068L921.971 121.882C921.417 121.661 920.66 121.556 919.713 121.556V121.756V121.956C920.638 121.956 921.337 122.059 921.823 122.254L921.897 122.068ZM919.713 121.756L919.735 121.557C918.789 121.452 917.638 121.4 916.281 121.4V121.6V121.8C917.629 121.8 918.765 121.852 919.691 121.955L919.713 121.756ZM916.281 121.6V121.4C908.665 121.4 902.94 123.069 899.144 126.443L899.277 126.592L899.41 126.741C903.102 123.459 908.714 121.8 916.281 121.8V121.6ZM899.277 126.592L899.144 126.443C895.341 129.823 893.461 135.193 893.461 142.504H893.661H893.861C893.861 135.255 895.725 130.017 899.41 126.741L899.277 126.592Z" fill="#FE9654" mask="url(#path-4-outside-1_159_178)"/>
<defs>
<clipPath id="clip0_159_178">
<rect x="15" y="16" width="225" height="225" rx="11" fill="white"/>
</clipPath>
</defs>
</svg>
