<svg width="128" height="36" viewBox="0 0 128 36" fill="none" xmlns="http://www.w3.org/2000/svg">
<mask id="path-1-outside-1_8250_22" maskUnits="userSpaceOnUse" x="37" y="9" width="88" height="18" fill="black">
<rect fill="white" x="37" y="9" width="88" height="18"/>
<path d="M43.446 26L37.616 10.16H40.608L45.382 23.976H44.898L49.672 10.16H52.51L46.702 26H43.446ZM53.208 26V14.78H55.98V26H53.208ZM53.076 12.932V9.874H56.09V12.932H53.076ZM65.7664 26V23.47L65.9864 23.514C65.7957 24.3353 65.3337 24.9953 64.6004 25.494C63.867 25.978 62.9944 26.22 61.9824 26.22C60.9557 26.22 60.061 25.9853 59.2984 25.516C58.5504 25.032 57.971 24.3573 57.5604 23.492C57.1497 22.6267 56.9444 21.6073 56.9444 20.434C56.9444 19.246 57.157 18.212 57.5824 17.332C58.0077 16.452 58.6017 15.77 59.3644 15.286C60.1417 14.802 61.0437 14.56 62.0704 14.56C63.1264 14.56 63.999 14.8167 64.6884 15.33C65.3777 15.8287 65.803 16.5253 65.9644 17.42L65.6784 17.442V10.16H68.4724V26H65.7664ZM62.7964 23.954C63.691 23.954 64.4024 23.646 64.9304 23.03C65.473 22.3993 65.7444 21.5193 65.7444 20.39C65.7444 19.2607 65.473 18.388 64.9304 17.772C64.3877 17.156 63.669 16.848 62.7744 16.848C61.8944 16.848 61.183 17.1633 60.6404 17.794C60.0977 18.41 59.8264 19.2827 59.8264 20.412C59.8264 21.5413 60.0977 22.414 60.6404 23.03C61.183 23.646 61.9017 23.954 62.7964 23.954ZM70.2124 26V10.16H73.0724V26H70.2124ZM72.2804 17.772L79.7824 10.16H83.6324L75.8224 17.772H72.2804ZM80.1344 26L72.2364 17.772H75.8224L84.0724 26H80.1344ZM84.5193 26V14.78H87.2253V17.486H87.2913V26H84.5193ZM87.2913 20.148L87.0053 17.486C87.2693 16.5327 87.7166 15.8067 88.3473 15.308C88.978 14.8093 89.7333 14.56 90.6133 14.56C90.9213 14.56 91.1413 14.5893 91.2733 14.648V17.266C91.2 17.2367 91.0973 17.222 90.9653 17.222C90.8333 17.2073 90.672 17.2 90.4813 17.2C89.4106 17.2 88.6113 17.4347 88.0833 17.904C87.5553 18.3733 87.2913 19.1213 87.2913 20.148ZM98.6009 26C98.5275 25.7067 98.4689 25.384 98.4249 25.032C98.3955 24.68 98.3809 24.2547 98.3809 23.756H98.2929V18.432C98.2929 17.8453 98.1242 17.4053 97.7869 17.112C97.4642 16.804 96.9655 16.65 96.2909 16.65C95.6309 16.65 95.1029 16.7747 94.7069 17.024C94.3255 17.2587 94.0909 17.6033 94.0029 18.058H91.3409C91.4582 17.0167 91.9569 16.1733 92.8369 15.528C93.7169 14.8827 94.8975 14.56 96.3789 14.56C97.9189 14.56 99.0849 14.912 99.8769 15.616C100.669 16.3053 101.065 17.3247 101.065 18.674V23.756C101.065 24.108 101.087 24.4673 101.131 24.834C101.19 25.2007 101.27 25.5893 101.373 26H98.6009ZM94.7069 26.22C93.5775 26.22 92.6755 25.9413 92.0009 25.384C91.3409 24.812 91.0109 24.0493 91.0109 23.096C91.0109 22.0693 91.3849 21.2553 92.1329 20.654C92.8809 20.0527 93.9369 19.6493 95.3009 19.444L98.7989 18.916V20.676L95.7629 21.138C95.1029 21.2407 94.6042 21.424 94.2669 21.688C93.9442 21.952 93.7829 22.3187 93.7829 22.788C93.7829 23.2133 93.9369 23.5433 94.2449 23.778C94.5529 23.998 94.9782 24.108 95.5209 24.108C96.3129 24.108 96.9729 23.91 97.5009 23.514C98.0289 23.118 98.2929 22.634 98.2929 22.062L98.6009 23.756C98.3075 24.5627 97.8235 25.1787 97.1489 25.604C96.4889 26.0147 95.6749 26.22 94.7069 26.22ZM103.115 26V13.746C103.115 12.514 103.453 11.5753 104.127 10.93C104.817 10.27 105.843 9.94 107.207 9.94C107.515 9.94 107.772 9.95467 107.977 9.984C108.183 10.0133 108.381 10.0573 108.571 10.116V12.272C108.469 12.228 108.337 12.1987 108.175 12.184C108.014 12.1547 107.831 12.14 107.625 12.14C107.039 12.14 106.599 12.2867 106.305 12.58C106.027 12.8587 105.887 13.2693 105.887 13.812V26H103.115ZM101.091 16.958V14.78H108.329V16.958H101.091ZM114.445 26.22C113.066 26.22 112.047 25.8973 111.387 25.252C110.741 24.592 110.419 23.6093 110.419 22.304V12.228L113.213 11.194V22.37C113.213 22.9127 113.359 23.316 113.653 23.58C113.946 23.844 114.408 23.976 115.039 23.976C115.288 23.976 115.508 23.9613 115.699 23.932C115.904 23.888 116.095 23.8367 116.271 23.778V25.934C116.095 26.022 115.845 26.088 115.523 26.132C115.2 26.1907 114.841 26.22 114.445 26.22ZM108.263 16.958V14.78H116.271V16.958H108.263ZM117.244 26V14.78H119.95V17.486H120.016V26H117.244ZM120.016 20.148L119.73 17.486C119.994 16.5327 120.442 15.8067 121.072 15.308C121.703 14.8093 122.458 14.56 123.338 14.56C123.646 14.56 123.866 14.5893 123.998 14.648V17.266C123.925 17.2367 123.822 17.222 123.69 17.222C123.558 17.2073 123.397 17.2 123.206 17.2C122.136 17.2 121.336 17.4347 120.808 17.904C120.28 18.3733 120.016 19.1213 120.016 20.148Z"/>
</mask>
<path d="M43.446 26L37.616 10.16H40.608L45.382 23.976H44.898L49.672 10.16H52.51L46.702 26H43.446ZM53.208 26V14.78H55.98V26H53.208ZM53.076 12.932V9.874H56.09V12.932H53.076ZM65.7664 26V23.47L65.9864 23.514C65.7957 24.3353 65.3337 24.9953 64.6004 25.494C63.867 25.978 62.9944 26.22 61.9824 26.22C60.9557 26.22 60.061 25.9853 59.2984 25.516C58.5504 25.032 57.971 24.3573 57.5604 23.492C57.1497 22.6267 56.9444 21.6073 56.9444 20.434C56.9444 19.246 57.157 18.212 57.5824 17.332C58.0077 16.452 58.6017 15.77 59.3644 15.286C60.1417 14.802 61.0437 14.56 62.0704 14.56C63.1264 14.56 63.999 14.8167 64.6884 15.33C65.3777 15.8287 65.803 16.5253 65.9644 17.42L65.6784 17.442V10.16H68.4724V26H65.7664ZM62.7964 23.954C63.691 23.954 64.4024 23.646 64.9304 23.03C65.473 22.3993 65.7444 21.5193 65.7444 20.39C65.7444 19.2607 65.473 18.388 64.9304 17.772C64.3877 17.156 63.669 16.848 62.7744 16.848C61.8944 16.848 61.183 17.1633 60.6404 17.794C60.0977 18.41 59.8264 19.2827 59.8264 20.412C59.8264 21.5413 60.0977 22.414 60.6404 23.03C61.183 23.646 61.9017 23.954 62.7964 23.954ZM70.2124 26V10.16H73.0724V26H70.2124ZM72.2804 17.772L79.7824 10.16H83.6324L75.8224 17.772H72.2804ZM80.1344 26L72.2364 17.772H75.8224L84.0724 26H80.1344ZM84.5193 26V14.78H87.2253V17.486H87.2913V26H84.5193ZM87.2913 20.148L87.0053 17.486C87.2693 16.5327 87.7166 15.8067 88.3473 15.308C88.978 14.8093 89.7333 14.56 90.6133 14.56C90.9213 14.56 91.1413 14.5893 91.2733 14.648V17.266C91.2 17.2367 91.0973 17.222 90.9653 17.222C90.8333 17.2073 90.672 17.2 90.4813 17.2C89.4106 17.2 88.6113 17.4347 88.0833 17.904C87.5553 18.3733 87.2913 19.1213 87.2913 20.148ZM98.6009 26C98.5275 25.7067 98.4689 25.384 98.4249 25.032C98.3955 24.68 98.3809 24.2547 98.3809 23.756H98.2929V18.432C98.2929 17.8453 98.1242 17.4053 97.7869 17.112C97.4642 16.804 96.9655 16.65 96.2909 16.65C95.6309 16.65 95.1029 16.7747 94.7069 17.024C94.3255 17.2587 94.0909 17.6033 94.0029 18.058H91.3409C91.4582 17.0167 91.9569 16.1733 92.8369 15.528C93.7169 14.8827 94.8975 14.56 96.3789 14.56C97.9189 14.56 99.0849 14.912 99.8769 15.616C100.669 16.3053 101.065 17.3247 101.065 18.674V23.756C101.065 24.108 101.087 24.4673 101.131 24.834C101.19 25.2007 101.27 25.5893 101.373 26H98.6009ZM94.7069 26.22C93.5775 26.22 92.6755 25.9413 92.0009 25.384C91.3409 24.812 91.0109 24.0493 91.0109 23.096C91.0109 22.0693 91.3849 21.2553 92.1329 20.654C92.8809 20.0527 93.9369 19.6493 95.3009 19.444L98.7989 18.916V20.676L95.7629 21.138C95.1029 21.2407 94.6042 21.424 94.2669 21.688C93.9442 21.952 93.7829 22.3187 93.7829 22.788C93.7829 23.2133 93.9369 23.5433 94.2449 23.778C94.5529 23.998 94.9782 24.108 95.5209 24.108C96.3129 24.108 96.9729 23.91 97.5009 23.514C98.0289 23.118 98.2929 22.634 98.2929 22.062L98.6009 23.756C98.3075 24.5627 97.8235 25.1787 97.1489 25.604C96.4889 26.0147 95.6749 26.22 94.7069 26.22ZM103.115 26V13.746C103.115 12.514 103.453 11.5753 104.127 10.93C104.817 10.27 105.843 9.94 107.207 9.94C107.515 9.94 107.772 9.95467 107.977 9.984C108.183 10.0133 108.381 10.0573 108.571 10.116V12.272C108.469 12.228 108.337 12.1987 108.175 12.184C108.014 12.1547 107.831 12.14 107.625 12.14C107.039 12.14 106.599 12.2867 106.305 12.58C106.027 12.8587 105.887 13.2693 105.887 13.812V26H103.115ZM101.091 16.958V14.78H108.329V16.958H101.091ZM114.445 26.22C113.066 26.22 112.047 25.8973 111.387 25.252C110.741 24.592 110.419 23.6093 110.419 22.304V12.228L113.213 11.194V22.37C113.213 22.9127 113.359 23.316 113.653 23.58C113.946 23.844 114.408 23.976 115.039 23.976C115.288 23.976 115.508 23.9613 115.699 23.932C115.904 23.888 116.095 23.8367 116.271 23.778V25.934C116.095 26.022 115.845 26.088 115.523 26.132C115.2 26.1907 114.841 26.22 114.445 26.22ZM108.263 16.958V14.78H116.271V16.958H108.263ZM117.244 26V14.78H119.95V17.486H120.016V26H117.244ZM120.016 20.148L119.73 17.486C119.994 16.5327 120.442 15.8067 121.072 15.308C121.703 14.8093 122.458 14.56 123.338 14.56C123.646 14.56 123.866 14.5893 123.998 14.648V17.266C123.925 17.2367 123.822 17.222 123.69 17.222C123.558 17.2073 123.397 17.2 123.206 17.2C122.136 17.2 121.336 17.4347 120.808 17.904C120.28 18.3733 120.016 19.1213 120.016 20.148Z" fill="#F35B27"/>
<path d="M43.446 26L43.2583 26.0691L43.3065 26.2H43.446V26ZM37.616 10.16V9.96H37.3293L37.4283 10.2291L37.616 10.16ZM40.608 10.16L40.797 10.0947L40.7505 9.96H40.608V10.16ZM45.382 23.976V24.176H45.6627L45.571 23.9107L45.382 23.976ZM44.898 23.976L44.709 23.9107L44.6173 24.176H44.898V23.976ZM49.672 10.16V9.96H49.5295L49.483 10.0947L49.672 10.16ZM52.51 10.16L52.6978 10.2289L52.7964 9.96H52.51V10.16ZM46.702 26V26.2H46.8417L46.8898 26.0689L46.702 26ZM43.446 26L43.6337 25.9309L37.8037 10.0909L37.616 10.16L37.4283 10.2291L43.2583 26.0691L43.446 26ZM37.616 10.16V10.36H40.608V10.16V9.96H37.616V10.16ZM40.608 10.16L40.419 10.2253L45.193 24.0413L45.382 23.976L45.571 23.9107L40.797 10.0947L40.608 10.16ZM45.382 23.976V23.776H44.898V23.976V24.176H45.382V23.976ZM44.898 23.976L45.087 24.0413L49.861 10.2253L49.672 10.16L49.483 10.0947L44.709 23.9107L44.898 23.976ZM49.672 10.16V10.36H52.51V10.16V9.96H49.672V10.16ZM52.51 10.16L52.3222 10.0911L46.5142 25.9311L46.702 26L46.8898 26.0689L52.6978 10.2289L52.51 10.16ZM46.702 26V25.8H43.446V26V26.2H46.702V26ZM53.208 26H53.008V26.2H53.208V26ZM53.208 14.78V14.58H53.008V14.78H53.208ZM55.98 14.78H56.18V14.58H55.98V14.78ZM55.98 26V26.2H56.18V26H55.98ZM53.076 12.932H52.876V13.132H53.076V12.932ZM53.076 9.874V9.674H52.876V9.874H53.076ZM56.09 9.874H56.29V9.674H56.09V9.874ZM56.09 12.932V13.132H56.29V12.932H56.09ZM53.208 26H53.408V14.78H53.208H53.008V26H53.208ZM53.208 14.78V14.98H55.98V14.78V14.58H53.208V14.78ZM55.98 14.78H55.78V26H55.98H56.18V14.78H55.98ZM55.98 26V25.8H53.208V26V26.2H55.98V26ZM53.076 12.932H53.276V9.874H53.076H52.876V12.932H53.076ZM53.076 9.874V10.074H56.09V9.874V9.674H53.076V9.874ZM56.09 9.874H55.89V12.932H56.09H56.29V9.874H56.09ZM56.09 12.932V12.732H53.076V12.932V13.132H56.09V12.932ZM65.7664 26H65.5664V26.2H65.7664V26ZM65.7664 23.47L65.8056 23.2739L65.5664 23.226V23.47H65.7664ZM65.9864 23.514L66.1812 23.5592L66.2278 23.3583L66.0256 23.3179L65.9864 23.514ZM64.6004 25.494L64.7106 25.6609L64.7128 25.6594L64.6004 25.494ZM59.2984 25.516L59.1897 25.684L59.1936 25.6863L59.2984 25.516ZM57.5604 23.492L57.7411 23.4063L57.7411 23.4063L57.5604 23.492ZM59.3644 15.286L59.2587 15.1162L59.2572 15.1171L59.3644 15.286ZM64.6884 15.33L64.5689 15.4904L64.5712 15.492L64.6884 15.33ZM65.9644 17.42L65.9797 17.6194L66.2005 17.6024L66.1612 17.3845L65.9644 17.42ZM65.6784 17.442H65.4784V17.658L65.6937 17.6414L65.6784 17.442ZM65.6784 10.16V9.96H65.4784V10.16H65.6784ZM68.4724 10.16H68.6724V9.96H68.4724V10.16ZM68.4724 26V26.2H68.6724V26H68.4724ZM64.9304 23.03L64.7788 22.8996L64.7785 22.8998L64.9304 23.03ZM60.6404 17.794L60.7905 17.9262L60.792 17.9244L60.6404 17.794ZM60.6404 23.03L60.7904 22.8978L60.7904 22.8978L60.6404 23.03ZM65.7664 26H65.9664V23.47H65.7664H65.5664V26H65.7664ZM65.7664 23.47L65.7272 23.6661L65.9472 23.7101L65.9864 23.514L66.0256 23.3179L65.8056 23.2739L65.7664 23.47ZM65.9864 23.514L65.7916 23.4688C65.6129 24.2384 65.182 24.8566 64.4879 25.3286L64.6004 25.494L64.7128 25.6594C65.4854 25.1341 65.9785 24.4323 66.1812 23.5592L65.9864 23.514ZM64.6004 25.494L64.4902 25.3271C63.7943 25.7864 62.9613 26.02 61.9824 26.02V26.22V26.42C63.0274 26.42 63.9398 26.1696 64.7105 25.6609L64.6004 25.494ZM61.9824 26.22V26.02C60.9872 26.02 60.1299 25.7929 59.4032 25.3457L59.2984 25.516L59.1936 25.6863C59.9921 26.1778 60.9242 26.42 61.9824 26.42V26.22ZM59.2984 25.516L59.407 25.3481C58.6925 24.8858 58.1371 24.2407 57.7411 23.4063L57.5604 23.492L57.3797 23.5777C57.805 24.474 58.4082 25.1782 59.1897 25.6839L59.2984 25.516ZM57.5604 23.492L57.7411 23.4063C57.3456 22.5731 57.1444 21.5842 57.1444 20.434H56.9444H56.7444C56.7444 21.6305 56.9538 22.6803 57.3797 23.5777L57.5604 23.492ZM56.9444 20.434H57.1444C57.1444 19.2698 57.3527 18.2667 57.7624 17.419L57.5824 17.332L57.4023 17.245C56.9613 18.1573 56.7444 19.2222 56.7444 20.434H56.9444ZM57.5824 17.332L57.7624 17.419C58.173 16.5697 58.7429 15.9173 59.4715 15.4549L59.3644 15.286L59.2572 15.1171C58.4605 15.6227 57.8425 16.3343 57.4023 17.245L57.5824 17.332ZM59.3644 15.286L59.4701 15.4558C60.212 14.9939 61.0764 14.76 62.0704 14.76V14.56V14.36C61.011 14.36 60.0715 14.6101 59.2587 15.1162L59.3644 15.286ZM62.0704 14.56V14.76C63.0934 14.76 63.9214 15.0082 64.5689 15.4904L64.6884 15.33L64.8078 15.1696C64.0767 14.6251 63.1594 14.36 62.0704 14.36V14.56ZM64.6884 15.33L64.5712 15.492C65.2155 15.9582 65.6147 16.6079 65.7675 17.4555L65.9644 17.42L66.1612 17.3845C65.9914 16.4428 65.5399 15.6991 64.8056 15.168L64.6884 15.33ZM65.9644 17.42L65.949 17.2206L65.663 17.2426L65.6784 17.442L65.6937 17.6414L65.9797 17.6194L65.9644 17.42ZM65.6784 17.442H65.8784V10.16H65.6784H65.4784V17.442H65.6784ZM65.6784 10.16V10.36H68.4724V10.16V9.96H65.6784V10.16ZM68.4724 10.16H68.2724V26H68.4724H68.6724V10.16H68.4724ZM68.4724 26V25.8H65.7664V26V26.2H68.4724V26ZM62.7964 23.954V24.154C63.7427 24.154 64.512 23.8254 65.0822 23.1602L64.9304 23.03L64.7785 22.8998C64.2927 23.4666 63.6394 23.754 62.7964 23.754V23.954ZM64.9304 23.03L65.082 23.1604C65.6655 22.4823 65.9444 21.55 65.9444 20.39H65.7444H65.5444C65.5444 21.4886 65.2806 22.3164 64.7788 22.8996L64.9304 23.03ZM65.7444 20.39H65.9444C65.9444 19.2303 65.6656 18.3041 65.0804 17.6398L64.9304 17.772L64.7803 17.9042C65.2804 18.4719 65.5444 19.291 65.5444 20.39H65.7444ZM64.9304 17.772L65.0804 17.6398C64.4961 16.9765 63.7207 16.648 62.7744 16.648V16.848V17.048C63.6174 17.048 64.2793 17.3355 64.7803 17.9042L64.9304 17.772ZM62.7744 16.848V16.648C61.8399 16.648 61.0719 16.9859 60.4888 17.6636L60.6404 17.794L60.792 17.9244C61.2942 17.3408 61.9488 17.048 62.7744 17.048V16.848ZM60.6404 17.794L60.4903 17.6618C59.9051 18.3261 59.6264 19.2523 59.6264 20.412H59.8264H60.0264C60.0264 19.313 60.2903 18.4939 60.7904 17.9262L60.6404 17.794ZM59.8264 20.412H59.6264C59.6264 21.5717 59.9051 22.4979 60.4903 23.1622L60.6404 23.03L60.7904 22.8978C60.2903 22.3301 60.0264 21.511 60.0264 20.412H59.8264ZM60.6404 23.03L60.4903 23.1622C61.0746 23.8255 61.8501 24.154 62.7964 24.154V23.954V23.754C61.9533 23.754 61.2915 23.4665 60.7904 22.8978L60.6404 23.03ZM70.2124 26H70.0124V26.2H70.2124V26ZM70.2124 10.16V9.96H70.0124V10.16H70.2124ZM73.0724 10.16H73.2724V9.96H73.0724V10.16ZM73.0724 26V26.2H73.2724V26H73.0724ZM72.2804 17.772L72.138 17.6316L71.8025 17.972H72.2804V17.772ZM79.7824 10.16V9.96H79.6987L79.64 10.0196L79.7824 10.16ZM83.6324 10.16L83.772 10.3032L84.1242 9.96H83.6324V10.16ZM75.8224 17.772V17.972H75.9038L75.962 17.9152L75.8224 17.772ZM80.1344 26L79.9902 26.1385L80.0492 26.2H80.1344V26ZM72.2364 17.772V17.572H71.7672L72.0922 17.9105L72.2364 17.772ZM75.8224 17.772L75.9637 17.6304L75.9051 17.572H75.8224V17.772ZM84.0724 26V26.2H84.5562L84.2137 25.8584L84.0724 26ZM70.2124 26H70.4124V10.16H70.2124H70.0124V26H70.2124ZM70.2124 10.16V10.36H73.0724V10.16V9.96H70.2124V10.16ZM73.0724 10.16H72.8724V26H73.0724H73.2724V10.16H73.0724ZM73.0724 26V25.8H70.2124V26V26.2H73.0724V26ZM72.2804 17.772L72.4229 17.9124L79.9249 10.3004L79.7824 10.16L79.64 10.0196L72.138 17.6316L72.2804 17.772ZM79.7824 10.16V10.36H83.6324V10.16V9.96H79.7824V10.16ZM83.6324 10.16L83.4928 10.0168L75.6828 17.6288L75.8224 17.772L75.962 17.9152L83.772 10.3032L83.6324 10.16ZM75.8224 17.772V17.572H72.2804V17.772V17.972H75.8224V17.772ZM80.1344 26L80.2787 25.8615L72.3807 17.6335L72.2364 17.772L72.0922 17.9105L79.9902 26.1385L80.1344 26ZM72.2364 17.772V17.972H75.8224V17.772V17.572H72.2364V17.772ZM75.8224 17.772L75.6812 17.9136L83.9312 26.1416L84.0724 26L84.2137 25.8584L75.9637 17.6304L75.8224 17.772ZM84.0724 26V25.8H80.1344V26V26.2H84.0724V26ZM84.5193 26H84.3193V26.2H84.5193V26ZM84.5193 14.78V14.58H84.3193V14.78H84.5193ZM87.2253 14.78H87.4253V14.58H87.2253V14.78ZM87.2253 17.486H87.0253V17.686H87.2253V17.486ZM87.2913 17.486H87.4913V17.286H87.2913V17.486ZM87.2913 26V26.2H87.4913V26H87.2913ZM87.2913 20.148L87.0925 20.1694L87.4913 20.148H87.2913ZM87.0053 17.486L86.8126 17.4326L86.8024 17.4694L86.8065 17.5074L87.0053 17.486ZM88.3473 15.308L88.2233 15.1511L88.3473 15.308ZM91.2733 14.648H91.4733V14.518L91.3545 14.4652L91.2733 14.648ZM91.2733 17.266L91.199 17.4517L91.4733 17.5614V17.266H91.2733ZM90.9653 17.222L90.9432 17.4208L90.9542 17.422H90.9653V17.222ZM88.0833 17.904L87.9504 17.7545L87.9504 17.7545L88.0833 17.904ZM84.5193 26H84.7193V14.78H84.5193H84.3193V26H84.5193ZM84.5193 14.78V14.98H87.2253V14.78V14.58H84.5193V14.78ZM87.2253 14.78H87.0253V17.486H87.2253H87.4253V14.78H87.2253ZM87.2253 17.486V17.686H87.2913V17.486V17.286H87.2253V17.486ZM87.2913 17.486H87.0913V26H87.2913H87.4913V17.486H87.2913ZM87.2913 26V25.8H84.5193V26V26.2H87.2913V26ZM87.2913 20.148L87.4902 20.1266L87.2042 17.4646L87.0053 17.486L86.8065 17.5074L87.0925 20.1694L87.2913 20.148ZM87.0053 17.486L87.1981 17.5394C87.4534 16.6174 87.881 15.9316 88.4714 15.4649L88.3473 15.308L88.2233 15.1511C87.5523 15.6817 87.0852 16.448 86.8126 17.4326L87.0053 17.486ZM88.3473 15.308L88.4714 15.4649C89.0633 14.9968 89.7738 14.76 90.6133 14.76V14.56V14.36C89.6928 14.36 88.8926 14.6218 88.2233 15.1511L88.3473 15.308ZM90.6133 14.56V14.76C90.9179 14.76 91.1013 14.7904 91.1921 14.8308L91.2733 14.648L91.3545 14.4652C91.1814 14.3883 90.9247 14.36 90.6133 14.36V14.56ZM91.2733 14.648H91.0733V17.266H91.2733H91.4733V14.648H91.2733ZM91.2733 17.266L91.3476 17.0803C91.24 17.0373 91.108 17.022 90.9653 17.022V17.222V17.422C91.0866 17.422 91.16 17.4361 91.199 17.4517L91.2733 17.266ZM90.9653 17.222L90.9874 17.0232C90.8457 17.0075 90.6765 17 90.4813 17V17.2V17.4C90.6675 17.4 90.821 17.4072 90.9432 17.4208L90.9653 17.222ZM90.4813 17.2V17C89.3861 17 88.5299 17.2394 87.9504 17.7545L88.0833 17.904L88.2162 18.0535C88.6927 17.6299 89.4352 17.4 90.4813 17.4V17.2ZM88.0833 17.904L87.9504 17.7545C87.3633 18.2764 87.0913 19.0906 87.0913 20.148H87.2913H87.4913C87.4913 19.1521 87.7473 18.4703 88.2162 18.0535L88.0833 17.904ZM98.6009 26L98.4068 26.0485L98.4447 26.2H98.6009V26ZM98.4249 25.032L98.2254 25.0486L98.2264 25.0568L98.4249 25.032ZM98.3809 23.756H98.5809V23.556H98.3809V23.756ZM98.2929 23.756H98.0929V23.956H98.2929V23.756ZM97.7869 17.112L97.6486 17.2568L97.6556 17.2629L97.7869 17.112ZM94.7069 17.024L94.8117 17.1943L94.8134 17.1932L94.7069 17.024ZM94.0029 18.058V18.258H94.1679L94.1992 18.096L94.0029 18.058ZM91.3409 18.058L91.1421 18.0356L91.1171 18.258H91.3409V18.058ZM92.8369 15.528L92.9551 15.6893L92.9551 15.6893L92.8369 15.528ZM99.8769 15.616L99.744 15.7655L99.7456 15.7669L99.8769 15.616ZM101.131 24.834L100.932 24.8578L100.933 24.8656L101.131 24.834ZM101.373 26V26.2H101.629L101.567 25.9515L101.373 26ZM92.0009 25.384L91.8698 25.5352L91.8735 25.5382L92.0009 25.384ZM92.1329 20.654L92.0075 20.4981L92.0075 20.4981L92.1329 20.654ZM95.3009 19.444L95.3306 19.6418L95.3307 19.6418L95.3009 19.444ZM98.7989 18.916H98.9989V18.6835L98.769 18.7182L98.7989 18.916ZM98.7989 20.676L98.8289 20.8737L98.9989 20.8479V20.676H98.7989ZM95.7629 21.138L95.7328 20.9403L95.7321 20.9404L95.7629 21.138ZM94.2669 21.688L94.1436 21.5305L94.1402 21.5332L94.2669 21.688ZM94.2449 23.778L94.1236 23.9372L94.1286 23.9407L94.2449 23.778ZM97.5009 23.514L97.3809 23.354L97.3809 23.354L97.5009 23.514ZM98.2929 22.062L98.4896 22.0262L98.0929 22.062H98.2929ZM98.6009 23.756L98.7888 23.8243L98.8073 23.7735L98.7976 23.7202L98.6009 23.756ZM97.1489 25.604L97.2545 25.7738L97.2555 25.7732L97.1489 25.604ZM98.6009 26L98.7949 25.9515C98.7238 25.6672 98.6665 25.3525 98.6233 25.0072L98.4249 25.032L98.2264 25.0568C98.2712 25.4155 98.3312 25.7462 98.4068 26.0485L98.6009 26ZM98.4249 25.032L98.6242 25.0154C98.5954 24.6706 98.5809 24.2512 98.5809 23.756H98.3809H98.1809C98.1809 24.2582 98.1956 24.6894 98.2256 25.0486L98.4249 25.032ZM98.3809 23.756V23.556H98.2929V23.756V23.956H98.3809V23.756ZM98.2929 23.756H98.4929V18.432H98.2929H98.0929V23.756H98.2929ZM98.2929 18.432H98.4929C98.4929 17.8067 98.3118 17.3034 97.9181 16.9611L97.7869 17.112L97.6556 17.2629C97.9366 17.5073 98.0929 17.884 98.0929 18.432H98.2929ZM97.7869 17.112L97.925 16.9673C97.5499 16.6093 96.9912 16.45 96.2909 16.45V16.65V16.85C96.9399 16.85 97.3785 16.9987 97.6488 17.2567L97.7869 17.112ZM96.2909 16.65V16.45C95.6079 16.45 95.0388 16.5787 94.6003 16.8548L94.7069 17.024L94.8134 17.1932C95.167 16.9706 95.6538 16.85 96.2909 16.85V16.65ZM94.7069 17.024L94.602 16.8537C94.1712 17.1188 93.9047 17.5125 93.8065 18.02L94.0029 18.058L94.1992 18.096C94.277 17.6942 94.4799 17.3985 94.8117 17.1943L94.7069 17.024ZM94.0029 18.058V17.858H91.3409V18.058V18.258H94.0029V18.058ZM91.3409 18.058L91.5396 18.0804C91.6504 17.0971 92.1181 16.3031 92.9551 15.6893L92.8369 15.528L92.7186 15.3667C91.7957 16.0435 91.266 16.9362 91.1421 18.0356L91.3409 18.058ZM92.8369 15.528L92.9551 15.6893C93.7905 15.0767 94.9251 14.76 96.3789 14.76V14.56V14.36C94.87 14.36 93.6433 14.6886 92.7186 15.3667L92.8369 15.528ZM96.3789 14.56V14.76C97.8917 14.76 99.0022 15.1061 99.744 15.7655L99.8769 15.616L100.01 15.4665C99.1676 14.7179 97.946 14.36 96.3789 14.36V14.56ZM99.8769 15.616L99.7456 15.7669C100.482 16.408 100.865 17.3649 100.865 18.674H101.065H101.265C101.265 17.2845 100.856 16.2027 100.008 15.4651L99.8769 15.616ZM101.065 18.674H100.865V23.756H101.065H101.265V18.674H101.065ZM101.065 23.756H100.865C100.865 24.1163 100.887 24.4836 100.932 24.8578L101.131 24.834L101.329 24.8102C101.286 24.451 101.265 24.0997 101.265 23.756H101.065ZM101.131 24.834L100.933 24.8656C100.993 25.2387 101.075 25.633 101.179 26.0485L101.373 26L101.567 25.9515C101.465 25.5457 101.386 25.1627 101.328 24.8024L101.131 24.834ZM101.373 26V25.8H98.6009V26V26.2H101.373V26ZM94.7069 26.22V26.02C93.6103 26.02 92.7577 25.7498 92.1282 25.2298L92.0009 25.384L91.8735 25.5382C92.5933 26.1328 93.5448 26.42 94.7069 26.42V26.22ZM92.0009 25.384L92.1318 25.2329C91.52 24.7026 91.2109 23.9973 91.2109 23.096H91.0109H90.8109C90.8109 24.1014 91.1617 24.9214 91.8699 25.5351L92.0009 25.384ZM91.0109 23.096H91.2109C91.2109 22.1251 91.561 21.3703 92.2582 20.8099L92.1329 20.654L92.0075 20.4981C91.2087 21.1404 90.8109 22.0136 90.8109 23.096H91.0109ZM92.1329 20.654L92.2582 20.8099C92.9691 20.2383 93.9872 19.844 95.3306 19.6418L95.3009 19.444L95.2711 19.2462C93.8865 19.4547 92.7926 19.867 92.0075 20.4981L92.1329 20.654ZM95.3009 19.444L95.3307 19.6418L98.8287 19.1138L98.7989 18.916L98.769 18.7182L95.271 19.2462L95.3009 19.444ZM98.7989 18.916H98.5989V20.676H98.7989H98.9989V18.916H98.7989ZM98.7989 20.676L98.7688 20.4783L95.7328 20.9403L95.7629 21.138L95.7929 21.3357L98.8289 20.8737L98.7989 20.676ZM95.7629 21.138L95.7321 20.9404C95.0555 21.0456 94.5188 21.2368 94.1436 21.5305L94.2669 21.688L94.3901 21.8455C94.6896 21.6112 95.1502 21.4357 95.7936 21.3356L95.7629 21.138ZM94.2669 21.688L94.1402 21.5332C93.7649 21.8403 93.5829 22.2672 93.5829 22.788H93.7829H93.9829C93.9829 22.3701 94.1235 22.0637 94.3935 21.8428L94.2669 21.688ZM93.7829 22.788H93.5829C93.5829 23.2687 93.7606 23.6605 94.1237 23.9371L94.2449 23.778L94.3661 23.6189C94.1131 23.4262 93.9829 23.158 93.9829 22.788H93.7829ZM94.2449 23.778L94.1286 23.9407C94.4824 24.1934 94.9539 24.308 95.5209 24.308V24.108V23.908C95.0025 23.908 94.6234 23.8026 94.3611 23.6153L94.2449 23.778ZM95.5209 24.108V24.308C96.3472 24.308 97.0517 24.1008 97.6209 23.674L97.5009 23.514L97.3809 23.354C96.894 23.7192 96.2785 23.908 95.5209 23.908V24.108ZM97.5009 23.514L97.6209 23.674C98.1904 23.2468 98.4929 22.7072 98.4929 22.062H98.2929H98.0929C98.0929 22.5608 97.8673 22.9892 97.3809 23.354L97.5009 23.514ZM98.2929 22.062L98.0961 22.0978L98.4041 23.7918L98.6009 23.756L98.7976 23.7202L98.4896 22.0262L98.2929 22.062ZM98.6009 23.756L98.4129 23.6877C98.1335 24.456 97.6764 25.035 97.0422 25.4348L97.1489 25.604L97.2555 25.7732C97.9707 25.3223 98.4816 24.6693 98.7888 23.8243L98.6009 23.756ZM97.1489 25.604L97.0432 25.4342C96.4219 25.8208 95.6466 26.02 94.7069 26.02V26.22V26.42C95.7031 26.42 96.5559 26.2085 97.2545 25.7738L97.1489 25.604ZM103.115 26H102.915V26.2H103.115V26ZM104.127 10.93L104.266 11.0745L104.266 11.0745L104.127 10.93ZM107.977 9.984L108.006 9.78601L108.006 9.78601L107.977 9.984ZM108.571 10.116H108.771V9.96828L108.63 9.92484L108.571 10.116ZM108.571 12.272L108.493 12.4558L108.771 12.5753V12.272H108.571ZM108.175 12.184L108.14 12.3808L108.148 12.3824L108.157 12.3832L108.175 12.184ZM106.305 12.58L106.447 12.7214L106.447 12.7214L106.305 12.58ZM105.887 26V26.2H106.087V26H105.887ZM101.091 16.958H100.891V17.158H101.091V16.958ZM101.091 14.78V14.58H100.891V14.78H101.091ZM108.329 14.78H108.529V14.58H108.329V14.78ZM108.329 16.958V17.158H108.529V16.958H108.329ZM103.115 26H103.315V13.746H103.115H102.915V26H103.115ZM103.115 13.746H103.315C103.315 12.5504 103.642 11.6712 104.266 11.0745L104.127 10.93L103.989 10.7855C103.264 11.4795 102.915 12.4776 102.915 13.746H103.115ZM104.127 10.93L104.266 11.0745C104.904 10.4629 105.873 10.14 107.207 10.14V9.94V9.74C105.814 9.74 104.729 10.0771 103.989 10.7855L104.127 10.93ZM107.207 9.94V10.14C107.51 10.14 107.756 10.1545 107.949 10.182L107.977 9.984L108.006 9.78601C107.788 9.75486 107.521 9.74 107.207 9.74V9.94ZM107.977 9.984L107.949 10.182C108.144 10.2099 108.332 10.2517 108.513 10.3072L108.571 10.116L108.63 9.92484C108.429 9.86299 108.221 9.81676 108.006 9.78601L107.977 9.984ZM108.571 10.116H108.371V12.272H108.571H108.771V10.116H108.571ZM108.571 12.272L108.65 12.0882C108.522 12.0331 108.367 12.0006 108.193 11.9848L108.175 12.184L108.157 12.3832C108.306 12.3967 108.416 12.4229 108.493 12.4558L108.571 12.272ZM108.175 12.184L108.211 11.9872C108.035 11.9553 107.84 11.94 107.625 11.94V12.14V12.34C107.822 12.34 107.993 12.354 108.14 12.3808L108.175 12.184ZM107.625 12.14V11.94C107.008 11.94 106.508 12.0945 106.164 12.4386L106.305 12.58L106.447 12.7214C106.689 12.4788 107.069 12.34 107.625 12.34V12.14ZM106.305 12.58L106.164 12.4386C105.835 12.7671 105.687 13.2367 105.687 13.812H105.887H106.087C106.087 13.302 106.218 12.9503 106.447 12.7214L106.305 12.58ZM105.887 13.812H105.687V26H105.887H106.087V13.812H105.887ZM105.887 26V25.8H103.115V26V26.2H105.887V26ZM101.091 16.958H101.291V14.78H101.091H100.891V16.958H101.091ZM101.091 14.78V14.98H108.329V14.78V14.58H101.091V14.78ZM108.329 14.78H108.129V16.958H108.329H108.529V14.78H108.329ZM108.329 16.958V16.758H101.091V16.958V17.158H108.329V16.958ZM111.387 25.252L111.244 25.3919L111.247 25.395L111.387 25.252ZM110.419 12.228L110.349 12.0404L110.219 12.0888V12.228H110.419ZM113.213 11.194H113.413V10.9067L113.143 11.0064L113.213 11.194ZM113.653 23.58L113.787 23.4313L113.787 23.4313L113.653 23.58ZM115.699 23.932L115.729 24.13L115.741 24.1276L115.699 23.932ZM116.271 23.778H116.471V23.5005L116.208 23.5883L116.271 23.778ZM116.271 25.934L116.36 26.1129L116.471 26.0576V25.934H116.271ZM115.523 26.132L115.496 25.9336L115.487 25.9352L115.523 26.132ZM108.263 16.958H108.063V17.158H108.263V16.958ZM108.263 14.78V14.58H108.063V14.78H108.263ZM116.271 14.78H116.471V14.58H116.271V14.78ZM116.271 16.958V17.158H116.471V16.958H116.271ZM114.445 26.22V26.02C113.093 26.02 112.134 25.7032 111.527 25.109L111.387 25.252L111.247 25.395C111.959 26.0915 113.039 26.42 114.445 26.42V26.22ZM111.387 25.252L111.53 25.1122C110.934 24.5027 110.619 23.5789 110.619 22.304H110.419H110.219C110.219 23.6398 110.549 24.6813 111.244 25.3918L111.387 25.252ZM110.419 22.304H110.619V12.228H110.419H110.219V22.304H110.419ZM110.419 12.228L110.488 12.4156L113.282 11.3816L113.213 11.194L113.143 11.0064L110.349 12.0404L110.419 12.228ZM113.213 11.194H113.013V22.37H113.213H113.413V11.194H113.213ZM113.213 22.37H113.013C113.013 22.9473 113.17 23.4141 113.519 23.7287L113.653 23.58L113.787 23.4313C113.549 23.2179 113.413 22.8781 113.413 22.37H113.213ZM113.653 23.58L113.519 23.7287C113.866 24.0406 114.387 24.176 115.039 24.176V23.976V23.776C114.43 23.776 114.027 23.6474 113.787 23.4313L113.653 23.58ZM115.039 23.976V24.176C115.296 24.176 115.526 24.1609 115.729 24.1297L115.699 23.932L115.668 23.7343C115.49 23.7617 115.281 23.776 115.039 23.776V23.976ZM115.699 23.932L115.741 24.1276C115.952 24.0822 116.15 24.029 116.334 23.9677L116.271 23.778L116.208 23.5883C116.039 23.6443 115.856 23.6938 115.657 23.7364L115.699 23.932ZM116.271 23.778H116.071V25.934H116.271H116.471V23.778H116.271ZM116.271 25.934L116.181 25.7551C116.034 25.829 115.809 25.8911 115.496 25.9338L115.523 26.132L115.55 26.3302C115.882 26.2849 116.156 26.215 116.36 26.1129L116.271 25.934ZM115.523 26.132L115.487 25.9352C115.178 25.9914 114.831 26.02 114.445 26.02V26.22V26.42C114.85 26.42 115.222 26.39 115.559 26.3288L115.523 26.132ZM108.263 16.958H108.463V14.78H108.263H108.063V16.958H108.263ZM108.263 14.78V14.98H116.271V14.78V14.58H108.263V14.78ZM116.271 14.78H116.071V16.958H116.271H116.471V14.78H116.271ZM116.271 16.958V16.758H108.263V16.958V17.158H116.271V16.958ZM117.244 26H117.044V26.2H117.244V26ZM117.244 14.78V14.58H117.044V14.78H117.244ZM119.95 14.78H120.15V14.58H119.95V14.78ZM119.95 17.486H119.75V17.686H119.95V17.486ZM120.016 17.486H120.216V17.286H120.016V17.486ZM120.016 26V26.2H120.216V26H120.016ZM120.016 20.148L119.817 20.1694L120.216 20.148H120.016ZM119.73 17.486L119.538 17.4326L119.527 17.4694L119.531 17.5074L119.73 17.486ZM121.072 15.308L120.948 15.1511L121.072 15.308ZM123.998 14.648H124.198V14.518L124.08 14.4652L123.998 14.648ZM123.998 17.266L123.924 17.4517L124.198 17.5614V17.266H123.998ZM123.69 17.222L123.668 17.4208L123.679 17.422H123.69V17.222ZM120.808 17.904L120.675 17.7545L120.675 17.7545L120.808 17.904ZM117.244 26H117.444V14.78H117.244H117.044V26H117.244ZM117.244 14.78V14.98H119.95V14.78V14.58H117.244V14.78ZM119.95 14.78H119.75V17.486H119.95H120.15V14.78H119.95ZM119.95 17.486V17.686H120.016V17.486V17.286H119.95V17.486ZM120.016 17.486H119.816V26H120.016H120.216V17.486H120.016ZM120.016 26V25.8H117.244V26V26.2H120.016V26ZM120.016 20.148L120.215 20.1266L119.929 17.4646L119.73 17.486L119.531 17.5074L119.817 20.1694L120.016 20.148ZM119.73 17.486L119.923 17.5394C120.178 16.6174 120.606 15.9316 121.196 15.4649L121.072 15.308L120.948 15.1511C120.277 15.6817 119.81 16.448 119.538 17.4326L119.73 17.486ZM121.072 15.308L121.196 15.4649C121.788 14.9968 122.499 14.76 123.338 14.76V14.56V14.36C122.418 14.36 121.618 14.6218 120.948 15.1511L121.072 15.308ZM123.338 14.56V14.76C123.643 14.76 123.826 14.7904 123.917 14.8308L123.998 14.648L124.08 14.4652C123.906 14.3883 123.65 14.36 123.338 14.36V14.56ZM123.998 14.648H123.798V17.266H123.998H124.198V14.648H123.998ZM123.998 17.266L124.073 17.0803C123.965 17.0373 123.833 17.022 123.69 17.022V17.222V17.422C123.812 17.422 123.885 17.4361 123.924 17.4517L123.998 17.266ZM123.69 17.222L123.712 17.0232C123.571 17.0075 123.401 17 123.206 17V17.2V17.4C123.392 17.4 123.546 17.4072 123.668 17.4208L123.69 17.222ZM123.206 17.2V17C122.111 17 121.255 17.2394 120.675 17.7545L120.808 17.904L120.941 18.0535C121.418 17.6299 122.16 17.4 123.206 17.4V17.2ZM120.808 17.904L120.675 17.7545C120.088 18.2764 119.816 19.0906 119.816 20.148H120.016H120.216C120.216 19.1521 120.472 18.4703 120.941 18.0535L120.808 17.904Z" fill="#F35B27" mask="url(#path-1-outside-1_8250_22)"/>
<path fill-rule="evenodd" clip-rule="evenodd" d="M15.1779 33.174C23.3596 33.174 29.9922 26.5414 29.9922 18.3596C29.9922 10.1779 23.3596 3.54531 15.1779 3.54531C6.99612 3.54531 0.363541 10.1779 0.363541 18.3596C0.363541 26.5414 6.99612 33.174 15.1779 33.174ZM19.7994 10.4464C20.0244 9.64737 19.2489 9.17485 18.5407 9.67941L8.65446 16.7223C7.88641 17.2695 8.00722 18.3596 8.83593 18.3596H11.4393V18.3395H16.513L12.3789 19.7982L10.5563 26.2728C10.3314 27.0719 11.1067 27.5444 11.815 27.0399L21.7013 19.997C22.4693 19.4498 22.3484 18.3596 21.5198 18.3596H17.5719L19.7994 10.4464Z" fill="#F35B27" fill-opacity="0.14"/>
<path fill-rule="evenodd" clip-rule="evenodd" d="M14.8143 32.6286C22.9961 32.6286 29.6286 25.996 29.6286 17.8143C29.6286 9.63261 22.9961 3 14.8143 3C6.63258 3 0 9.63261 0 17.8143C0 25.996 6.63258 32.6286 14.8143 32.6286ZM19.4359 9.90114C19.6608 9.10206 18.8854 8.62954 18.1772 9.1341L8.29092 16.177C7.52287 16.7242 7.64368 17.8143 8.47239 17.8143H11.0757V17.7942H16.1495L12.0153 19.2529L10.1928 25.7275C9.96783 26.5266 10.7432 26.9991 11.4515 26.4945L21.3377 19.4517C22.1058 18.9045 21.9849 17.8143 21.1563 17.8143H17.2084L19.4359 9.90114Z" fill="#F35B27"/>
</svg>
